
<svg width="24" height="24" viewBox="0 0 24 24" fill="none" xmlns="http://www.w3.org/2000/svg">
  <!-- Bell Icon -->
  <path d="M12 2C13.1 2 14 2.9 14 4C14 4.74 13.6 5.39 13 5.73V7C16.61 7.61 19 10.64 19 14.31V16L21 18V19H3V18L5 16V14.31C5 10.64 7.39 7.61 11 7V5.73C10.4 5.39 10 4.74 10 4C10 2.9 10.9 2 12 2ZM12 22C13.11 22 14 21.11 14 20H10C10 21.11 10.89 22 12 22Z" fill="#4F46E5"/>
  
  <!-- WhatsApp notification dot -->
  <circle cx="18" cy="6" r="4" fill="#E5E7EB"/>
  <path d="M19.2 7.4c-.1-.05-.6-.3-.7-.33-.09-.03-.16-.05-.23.05-.07.1-.26.33-.32.4-.06.07-.12.08-.22.03-.1-.05-.43-.16-.82-.5-.3-.27-.51-.6-.57-.7-.06-.1-.01-.16.04-.21.05-.05.1-.12.15-.18.05-.06.07-.1.1-.17.03-.07.02-.13-.01-.18-.03-.05-.23-.55-.32-.76-.08-.2-.17-.17-.23-.18-.06 0-.13 0-.2 0-.07 0-.18.03-.27.13-.09.1-.36.35-.36.85 0 .5.37.98.42 1.05.05.07.72 1.1 1.74 1.54.24.1.43.17.58.21.24.08.47.07.64.04.2-.03.6-.25.69-.48.08-.24.08-.44.06-.48-.03-.04-.09-.07-.2-.12M16.83 9.13h0c-.72-.32-1.72-.47-1.72-.47l-.12-.07-1.28.34.34-1.25-.08-.13c-.52-.32-.85-1.8-.52-1.8 1.87 0 3.38 1.52 3.38 3.38z" fill="white"/>
</svg>