
<svg width="24" height="24" viewBox="0 0 24 24" fill="none" xmlns="http://www.w3.org/2000/svg">
  <!-- Document Template Base -->
  <path d="M14 2H6C4.9 2 4 2.9 4 4V20C4 21.1 4.9 22 6 22H18C19.1 22 20 21.1 20 20V8L14 2Z" fill="#E5E7EB" stroke="#E5E7EB" stroke-width="1.5"/>
  
  <!-- Document Corner -->
  <path d="M14 2V8H20" fill="none" stroke="#9CA3AF" stroke-width="1.5"/>
  
  <!-- Text Lines -->
  <line x1="7" y1="12" x2="17" y2="12" stroke="#6B7280" stroke-width="1.5"/>
  <line x1="7" y1="15" x2="15" y2="15" stroke="#6B7280" stroke-width="1.5"/>
  <line x1="7" y1="18" x2="13" y2="18" stroke="#6B7280" stroke-width="1.5"/>
  
  <!-- WhatsApp Chat Bubble -->
  <g transform="translate(13, 14)">
    <circle cx="5" cy="5" r="6" fill="#25D366"/>
    <path d="M6.8 6.9c-.15-.07-.88-.43-1.02-.48-.14-.05-.24-.07-.34.08-.1.15-.38.48-.47.58-.09.1-.17.11-.32.04-.15-.08-.63-.23-1.2-.74-.44-.39-.74-.88-.83-1.03-.09-.15-.01-.23.07-.3.07-.07.15-.17.22-.26.08-.09.1-.15.15-.25.05-.1.03-.19-.01-.26-.04-.07-.34-.81-.46-1.1-.12-.29-.24-.25-.33-.26-.09 0-.19 0-.29 0-.1 0-.26.04-.4.19-.14.15-.52.51-.52 1.24 0 .73.53 1.44.61 1.54.07.1 1.05 1.6 2.54 2.24.36.15.63.24.85.31.36.11.68.1.94.06.29-.04.88-.36 1-.71.12-.35.12-.65.09-.71-.04-.06-.14-.1-.29-.17M5.54 9.48h0c-.82-.26-1.27-.69-1.27-.69l-.18-.11-1.87.49.5-1.83-.12-.19c-.38-.52-.76-2.63-.26-2.63 2.72 0 4.93 2.21 4.93 4.93C7.27 8.87 6.36 9.22 5.54 9.48z" fill="white"/>
  </g>
</svg>